# MagicaVoxel @ Ephtracy

# material
mtllib road-4way.mtl
usemtl palette

# normals
vn -1 0 0
vn 1 0 0
vn 0 0 1
vn 0 0 -1
vn 0 -1 0
vn 0 1 0

# texcoords
vt 0.501953 0.5
vt 0.521484 0.5
vt 0.533203 0.5
vt 0.603516 0.5

# verts
v -16 0 16
v -16 0 14
v -16 0 13
v -16 0 -13
v -16 0 -14
v -16 0 -16
v -16 3 14
v -16 3 13
v -16 3 -13
v -16 3 -14
v -16 4 16
v -16 4 14
v -16 4 -14
v -16 4 -16
v 14 3 16
v 14 3 14
v 14 3 -14
v 14 3 -16
v 14 4 16
v 14 4 14
v 14 4 -14
v 14 4 -16
v -14 3 16
v -14 3 14
v -14 3 -14
v -14 3 -16
v -14 4 16
v -14 4 14
v -14 4 -14
v -14 4 -16
v 16 0 16
v 16 0 14
v 16 0 13
v 16 0 -13
v 16 0 -14
v 16 0 -16
v 16 3 14
v 16 3 13
v 16 3 -13
v 16 3 -14
v 16 4 16
v 16 4 14
v 16 4 -14
v 16 4 -16
v -16 0 16
v -16 4 16
v -14 0 16
v -14 3 16
v -14 4 16
v -13 0 16
v -13 3 16
v 13 0 16
v 13 3 16
v 14 0 16
v 14 3 16
v 14 4 16
v 16 0 16
v 16 4 16
v -16 3 -14
v -16 4 -14
v -14 3 -14
v -14 4 -14
v 14 3 -14
v 14 4 -14
v 16 3 -14
v 16 4 -14
v -16 3 14
v -16 4 14
v -14 3 14
v -14 4 14
v 14 3 14
v 14 4 14
v 16 3 14
v 16 4 14
v -16 0 -16
v -16 4 -16
v -14 0 -16
v -14 3 -16
v -14 4 -16
v -13 0 -16
v -13 3 -16
v 13 0 -16
v 13 3 -16
v 14 0 -16
v 14 3 -16
v 14 4 -16
v 16 0 -16
v 16 4 -16
v -16 0 16
v -14 0 16
v -13 0 16
v 13 0 16
v 14 0 16
v 16 0 16
v -1 0 15
v 1 0 15
v -16 0 14
v -14 0 14
v -13 0 14
v 13 0 14
v 14 0 14
v 16 0 14
v -16 0 13
v -14 0 13
v 14 0 13
v 16 0 13
v -1 0 11
v 1 0 11
v -1 0 7
v 1 0 7
v -1 0 3
v 1 0 3
v -15 0 1
v -11 0 1
v -7 0 1
v -3 0 1
v 3 0 1
v 7 0 1
v 11 0 1
v 15 0 1
v -15 0 -1
v -11 0 -1
v -7 0 -1
v -3 0 -1
v 3 0 -1
v 7 0 -1
v 11 0 -1
v 15 0 -1
v -1 0 -4
v 1 0 -4
v -1 0 -8
v 1 0 -8
v -1 0 -11
v 1 0 -11
v -16 0 -13
v -14 0 -13
v 14 0 -13
v 16 0 -13
v -16 0 -14
v -14 0 -14
v -13 0 -14
v 13 0 -14
v 14 0 -14
v 16 0 -14
v -1 0 -15
v 1 0 -15
v -16 0 -16
v -14 0 -16
v -13 0 -16
v 13 0 -16
v 14 0 -16
v 16 0 -16
v -14 3 16
v -13 3 16
v 13 3 16
v 14 3 16
v -1 3 15
v 1 3 15
v -16 3 14
v -14 3 14
v -13 3 14
v 13 3 14
v 14 3 14
v 16 3 14
v -16 3 13
v -14 3 13
v 14 3 13
v 16 3 13
v -1 3 11
v 1 3 11
v -1 3 7
v 1 3 7
v -1 3 3
v 1 3 3
v -15 3 1
v -11 3 1
v -7 3 1
v -3 3 1
v 3 3 1
v 7 3 1
v 11 3 1
v 15 3 1
v -15 3 -1
v -11 3 -1
v -7 3 -1
v -3 3 -1
v 3 3 -1
v 7 3 -1
v 11 3 -1
v 15 3 -1
v -1 3 -4
v 1 3 -4
v -1 3 -8
v 1 3 -8
v -1 3 -11
v 1 3 -11
v -16 3 -13
v -14 3 -13
v 14 3 -13
v 16 3 -13
v -16 3 -14
v -14 3 -14
v -13 3 -14
v 13 3 -14
v 14 3 -14
v 16 3 -14
v -1 3 -15
v 1 3 -15
v -14 3 -16
v -13 3 -16
v 13 3 -16
v 14 3 -16
v -16 4 16
v -14 4 16
v 14 4 16
v 16 4 16
v -16 4 14
v -14 4 14
v 14 4 14
v 16 4 14
v -16 4 -14
v -14 4 -14
v 14 4 -14
v 16 4 -14
v -16 4 -16
v -14 4 -16
v 14 4 -16
v 16 4 -16

# faces
f 7/4/1 2/4/1 1/4/1
f 7/3/1 3/3/1 2/3/1
f 8/1/1 4/1/1 3/1/1
f 8/3/1 3/3/1 7/3/1
f 9/3/1 5/3/1 4/3/1
f 9/1/1 4/1/1 8/1/1
f 10/4/1 6/4/1 5/4/1
f 10/3/1 5/3/1 9/3/1
f 11/4/1 7/4/1 1/4/1
f 12/4/1 7/4/1 11/4/1
f 13/4/1 6/4/1 10/4/1
f 14/4/1 6/4/1 13/4/1
f 19/4/1 16/4/1 15/4/1
f 20/4/1 16/4/1 19/4/1
f 21/4/1 18/4/1 17/4/1
f 22/4/1 18/4/1 21/4/1
f 23/4/2 24/4/2 27/4/2
f 27/4/2 24/4/2 28/4/2
f 25/4/2 26/4/2 29/4/2
f 29/4/2 26/4/2 30/4/2
f 31/4/2 32/4/2 37/4/2
f 32/3/2 33/3/2 37/3/2
f 33/1/2 34/1/2 38/1/2
f 37/3/2 33/3/2 38/3/2
f 34/3/2 35/3/2 39/3/2
f 38/1/2 34/1/2 39/1/2
f 35/4/2 36/4/2 40/4/2
f 39/3/2 35/3/2 40/3/2
f 31/4/2 37/4/2 41/4/2
f 41/4/2 37/4/2 42/4/2
f 40/4/2 36/4/2 43/4/2
f 43/4/2 36/4/2 44/4/2
f 47/4/3 46/4/3 45/4/3
f 48/4/3 46/4/3 47/4/3
f 49/4/3 46/4/3 48/4/3
f 50/3/3 48/3/3 47/3/3
f 51/3/3 48/3/3 50/3/3
f 52/1/3 51/1/3 50/1/3
f 53/1/3 51/1/3 52/1/3
f 54/3/3 53/3/3 52/3/3
f 55/3/3 53/3/3 54/3/3
f 57/4/3 55/4/3 54/4/3
f 57/4/3 56/4/3 55/4/3
f 58/4/3 56/4/3 57/4/3
f 61/4/3 60/4/3 59/4/3
f 62/4/3 60/4/3 61/4/3
f 65/4/3 64/4/3 63/4/3
f 66/4/3 64/4/3 65/4/3
f 67/4/4 68/4/4 69/4/4
f 69/4/4 68/4/4 70/4/4
f 71/4/4 72/4/4 73/4/4
f 73/4/4 72/4/4 74/4/4
f 75/4/4 76/4/4 77/4/4
f 77/4/4 76/4/4 78/4/4
f 78/4/4 76/4/4 79/4/4
f 77/3/4 78/3/4 80/3/4
f 80/3/4 78/3/4 81/3/4
f 80/1/4 81/1/4 82/1/4
f 82/1/4 81/1/4 83/1/4
f 82/3/4 83/3/4 84/3/4
f 84/3/4 83/3/4 85/3/4
f 84/4/4 85/4/4 87/4/4
f 85/4/4 86/4/4 87/4/4
f 87/4/4 86/4/4 88/4/4
f 95/1/5 92/1/5 91/1/5
f 96/1/5 92/1/5 95/1/5
f 97/4/5 90/4/5 89/4/5
f 98/3/5 91/3/5 90/3/5
f 98/4/5 90/4/5 97/4/5
f 99/1/5 95/1/5 91/1/5
f 99/3/5 91/3/5 98/3/5
f 100/1/5 92/1/5 96/1/5
f 100/3/5 93/3/5 92/3/5
f 101/4/5 94/4/5 93/4/5
f 101/3/5 93/3/5 100/3/5
f 102/4/5 94/4/5 101/4/5
f 103/3/5 98/3/5 97/3/5
f 104/1/5 99/1/5 98/1/5
f 104/3/5 98/3/5 103/3/5
f 105/1/5 101/1/5 100/1/5
f 105/3/5 102/3/5 101/3/5
f 106/3/5 102/3/5 105/3/5
f 107/1/5 95/1/5 99/1/5
f 107/2/5 96/2/5 95/2/5
f 107/1/5 99/1/5 104/1/5
f 107/1/5 104/1/5 103/1/5
f 108/1/5 100/1/5 96/1/5
f 108/2/5 96/2/5 107/2/5
f 108/1/5 106/1/5 105/1/5
f 108/1/5 105/1/5 100/1/5
f 109/1/5 107/1/5 103/1/5
f 109/1/5 108/1/5 107/1/5
f 110/1/5 106/1/5 108/1/5
f 110/1/5 108/1/5 109/1/5
f 111/1/5 109/1/5 103/1/5
f 111/2/5 110/2/5 109/2/5
f 112/1/5 106/1/5 110/1/5
f 112/2/5 110/2/5 111/2/5
f 113/1/5 111/1/5 103/1/5
f 113/1/5 112/1/5 111/1/5
f 114/1/5 112/1/5 113/1/5
f 115/1/5 112/1/5 114/1/5
f 116/1/5 112/1/5 115/1/5
f 117/1/5 106/1/5 112/1/5
f 117/1/5 112/1/5 116/1/5
f 118/1/5 106/1/5 117/1/5
f 119/1/5 106/1/5 118/1/5
f 120/1/5 106/1/5 119/1/5
f 121/1/5 113/1/5 103/1/5
f 121/2/5 114/2/5 113/2/5
f 122/1/5 115/1/5 114/1/5
f 122/2/5 114/2/5 121/2/5
f 123/2/5 116/2/5 115/2/5
f 123/1/5 115/1/5 122/1/5
f 124/1/5 117/1/5 116/1/5
f 124/2/5 116/2/5 123/2/5
f 125/2/5 118/2/5 117/2/5
f 125/1/5 117/1/5 124/1/5
f 126/1/5 119/1/5 118/1/5
f 126/2/5 118/2/5 125/2/5
f 127/2/5 120/2/5 119/2/5
f 127/1/5 119/1/5 126/1/5
f 128/1/5 106/1/5 120/1/5
f 128/2/5 120/2/5 127/2/5
f 129/1/5 122/1/5 121/1/5
f 129/1/5 127/1/5 126/1/5
f 129/1/5 128/1/5 127/1/5
f 129/1/5 125/1/5 124/1/5
f 129/1/5 124/1/5 123/1/5
f 129/1/5 123/1/5 122/1/5
f 129/1/5 126/1/5 125/1/5
f 130/1/5 128/1/5 129/1/5
f 131/1/5 129/1/5 121/1/5
f 131/2/5 130/2/5 129/2/5
f 132/1/5 128/1/5 130/1/5
f 132/2/5 130/2/5 131/2/5
f 133/1/5 131/1/5 121/1/5
f 133/1/5 132/1/5 131/1/5
f 134/1/5 128/1/5 132/1/5
f 134/1/5 132/1/5 133/1/5
f 135/1/5 121/1/5 103/1/5
f 135/1/5 133/1/5 121/1/5
f 136/1/5 133/1/5 135/1/5
f 137/1/5 128/1/5 134/1/5
f 138/1/5 106/1/5 128/1/5
f 138/1/5 128/1/5 137/1/5
f 139/3/5 136/3/5 135/3/5
f 140/1/5 133/1/5 136/1/5
f 140/3/5 136/3/5 139/3/5
f 141/1/5 133/1/5 140/1/5
f 142/1/5 137/1/5 134/1/5
f 143/3/5 138/3/5 137/3/5
f 143/1/5 137/1/5 142/1/5
f 144/3/5 138/3/5 143/3/5
f 145/1/5 133/1/5 141/1/5
f 145/2/5 134/2/5 133/2/5
f 146/1/5 142/1/5 134/1/5
f 146/2/5 134/2/5 145/2/5
f 147/4/5 140/4/5 139/4/5
f 148/3/5 141/3/5 140/3/5
f 148/4/5 140/4/5 147/4/5
f 149/1/5 145/1/5 141/1/5
f 149/3/5 141/3/5 148/3/5
f 149/1/5 146/1/5 145/1/5
f 150/1/5 142/1/5 146/1/5
f 150/1/5 146/1/5 149/1/5
f 150/3/5 143/3/5 142/3/5
f 151/4/5 144/4/5 143/4/5
f 151/3/5 143/3/5 150/3/5
f 152/4/5 144/4/5 151/4/5
f 154/1/6 155/1/6 157/1/6
f 157/1/6 155/1/6 158/1/6
f 153/3/6 154/3/6 160/3/6
f 154/1/6 157/1/6 161/1/6
f 160/3/6 154/3/6 161/3/6
f 158/1/6 155/1/6 162/1/6
f 155/3/6 156/3/6 162/3/6
f 162/3/6 156/3/6 163/3/6
f 159/3/6 160/3/6 165/3/6
f 160/1/6 161/1/6 166/1/6
f 165/3/6 160/3/6 166/3/6
f 163/3/6 164/3/6 167/3/6
f 162/1/6 163/1/6 167/1/6
f 167/3/6 164/3/6 168/3/6
f 161/1/6 157/1/6 169/1/6
f 166/1/6 161/1/6 169/1/6
f 157/2/6 158/2/6 169/2/6
f 165/1/6 166/1/6 169/1/6
f 167/1/6 168/1/6 170/1/6
f 169/2/6 158/2/6 170/2/6
f 162/1/6 167/1/6 170/1/6
f 158/1/6 162/1/6 170/1/6
f 165/1/6 169/1/6 171/1/6
f 169/1/6 170/1/6 171/1/6
f 170/1/6 168/1/6 172/1/6
f 171/1/6 170/1/6 172/1/6
f 165/1/6 171/1/6 173/1/6
f 171/2/6 172/2/6 173/2/6
f 172/1/6 168/1/6 174/1/6
f 173/2/6 172/2/6 174/2/6
f 165/1/6 173/1/6 175/1/6
f 173/1/6 174/1/6 175/1/6
f 175/1/6 174/1/6 176/1/6
f 176/1/6 174/1/6 177/1/6
f 177/1/6 174/1/6 178/1/6
f 174/1/6 168/1/6 179/1/6
f 178/1/6 174/1/6 179/1/6
f 179/1/6 168/1/6 180/1/6
f 180/1/6 168/1/6 181/1/6
f 181/1/6 168/1/6 182/1/6
f 165/1/6 175/1/6 183/1/6
f 175/2/6 176/2/6 183/2/6
f 176/1/6 177/1/6 184/1/6
f 183/2/6 176/2/6 184/2/6
f 177/2/6 178/2/6 185/2/6
f 184/1/6 177/1/6 185/1/6
f 178/1/6 179/1/6 186/1/6
f 185/2/6 178/2/6 186/2/6
f 179/2/6 180/2/6 187/2/6
f 186/1/6 179/1/6 187/1/6
f 180/1/6 181/1/6 188/1/6
f 187/2/6 180/2/6 188/2/6
f 181/2/6 182/2/6 189/2/6
f 188/1/6 181/1/6 189/1/6
f 182/1/6 168/1/6 190/1/6
f 189/2/6 182/2/6 190/2/6
f 183/1/6 184/1/6 191/1/6
f 188/1/6 189/1/6 191/1/6
f 189/1/6 190/1/6 191/1/6
f 186/1/6 187/1/6 191/1/6
f 185/1/6 186/1/6 191/1/6
f 184/1/6 185/1/6 191/1/6
f 187/1/6 188/1/6 191/1/6
f 191/1/6 190/1/6 192/1/6
f 183/1/6 191/1/6 193/1/6
f 191/2/6 192/2/6 193/2/6
f 192/1/6 190/1/6 194/1/6
f 193/2/6 192/2/6 194/2/6
f 183/1/6 193/1/6 195/1/6
f 193/1/6 194/1/6 195/1/6
f 194/1/6 190/1/6 196/1/6
f 195/1/6 194/1/6 196/1/6
f 165/1/6 183/1/6 197/1/6
f 183/1/6 195/1/6 197/1/6
f 197/1/6 195/1/6 198/1/6
f 196/1/6 190/1/6 199/1/6
f 190/1/6 168/1/6 200/1/6
f 199/1/6 190/1/6 200/1/6
f 197/3/6 198/3/6 201/3/6
f 198/1/6 195/1/6 202/1/6
f 201/3/6 198/3/6 202/3/6
f 202/1/6 195/1/6 203/1/6
f 196/1/6 199/1/6 204/1/6
f 199/3/6 200/3/6 205/3/6
f 204/1/6 199/1/6 205/1/6
f 205/3/6 200/3/6 206/3/6
f 203/1/6 195/1/6 207/1/6
f 195/2/6 196/2/6 207/2/6
f 196/1/6 204/1/6 208/1/6
f 207/2/6 196/2/6 208/2/6
f 202/3/6 203/3/6 209/3/6
f 203/1/6 207/1/6 210/1/6
f 209/3/6 203/3/6 210/3/6
f 207/1/6 208/1/6 210/1/6
f 204/3/6 205/3/6 211/3/6
f 210/1/6 208/1/6 211/1/6
f 208/1/6 204/1/6 211/1/6
f 211/3/6 205/3/6 212/3/6
f 213/4/6 214/4/6 217/4/6
f 217/4/6 214/4/6 218/4/6
f 215/4/6 216/4/6 219/4/6
f 219/4/6 216/4/6 220/4/6
f 221/4/6 222/4/6 225/4/6
f 225/4/6 222/4/6 226/4/6
f 223/4/6 224/4/6 227/4/6
f 227/4/6 224/4/6 228/4/6
