# MagicaVoxel @ Ephtracy

# material
mtllib road-T.mtl
usemtl palette

# normals
vn -1 0 0
vn 1 0 0
vn 0 0 1
vn 0 0 -1
vn 0 -1 0
vn 0 1 0

# texcoords
vt 0.501953 0.5
vt 0.521484 0.5
vt 0.533203 0.5
vt 0.603516 0.5

# verts
v -16 0 16
v -16 0 14
v -16 0 13
v -16 0 -13
v -16 0 -14
v -16 0 -16
v -16 3 14
v -16 3 13
v -16 3 -13
v -16 3 -14
v -16 4 16
v -16 4 14
v -16 4 -14
v -16 4 -16
v 14 3 16
v 14 3 14
v 14 4 16
v 14 4 14
v -14 3 16
v -14 3 14
v -14 4 16
v -14 4 14
v 16 0 16
v 16 0 14
v 16 0 13
v 16 0 -13
v 16 0 -14
v 16 0 -16
v 16 3 14
v 16 3 13
v 16 3 -13
v 16 3 -14
v 16 4 16
v 16 4 14
v 16 4 -14
v 16 4 -16
v -16 0 16
v -16 4 16
v -14 0 16
v -14 3 16
v -14 4 16
v -13 0 16
v -13 3 16
v 13 0 16
v 13 3 16
v 14 0 16
v 14 3 16
v 14 4 16
v 16 0 16
v 16 4 16
v -16 3 -14
v -16 4 -14
v 16 3 -14
v 16 4 -14
v -16 3 14
v -16 4 14
v -14 3 14
v -14 4 14
v 14 3 14
v 14 4 14
v 16 3 14
v 16 4 14
v -16 0 -16
v -16 4 -16
v 16 0 -16
v 16 4 -16
v -16 0 16
v -14 0 16
v -13 0 16
v 13 0 16
v 14 0 16
v 16 0 16
v -1 0 15
v 1 0 15
v -16 0 14
v -14 0 14
v -13 0 14
v 13 0 14
v 14 0 14
v 16 0 14
v -16 0 13
v -14 0 13
v 14 0 13
v 16 0 13
v -1 0 11
v 1 0 11
v -1 0 7
v 1 0 7
v -1 0 3
v 1 0 3
v -13 0 1
v -9 0 1
v -5 0 1
v -1 0 1
v 3 0 1
v 7 0 1
v 11 0 1
v 15 0 1
v -13 0 -1
v -9 0 -1
v -5 0 -1
v -1 0 -1
v 3 0 -1
v 7 0 -1
v 11 0 -1
v 15 0 -1
v -16 0 -13
v 16 0 -13
v -16 0 -14
v 16 0 -14
v -16 0 -16
v 16 0 -16
v -14 3 16
v -13 3 16
v 13 3 16
v 14 3 16
v -1 3 15
v 1 3 15
v -16 3 14
v -14 3 14
v -13 3 14
v 13 3 14
v 14 3 14
v 16 3 14
v -16 3 13
v -14 3 13
v 14 3 13
v 16 3 13
v -1 3 11
v 1 3 11
v -1 3 7
v 1 3 7
v -1 3 3
v 1 3 3
v -13 3 1
v -9 3 1
v -5 3 1
v -1 3 1
v 3 3 1
v 7 3 1
v 11 3 1
v 15 3 1
v -13 3 -1
v -9 3 -1
v -5 3 -1
v -1 3 -1
v 3 3 -1
v 7 3 -1
v 11 3 -1
v 15 3 -1
v -16 3 -13
v 16 3 -13
v -16 3 -14
v 16 3 -14
v -16 4 16
v -14 4 16
v 14 4 16
v 16 4 16
v -16 4 14
v -14 4 14
v 14 4 14
v 16 4 14
v -16 4 -14
v 16 4 -14
v -16 4 -16
v 16 4 -16

# faces
f 7/4/1 2/4/1 1/4/1
f 7/3/1 3/3/1 2/3/1
f 8/1/1 4/1/1 3/1/1
f 8/3/1 3/3/1 7/3/1
f 9/3/1 5/3/1 4/3/1
f 9/1/1 4/1/1 8/1/1
f 10/4/1 6/4/1 5/4/1
f 10/3/1 5/3/1 9/3/1
f 11/4/1 7/4/1 1/4/1
f 12/4/1 7/4/1 11/4/1
f 13/4/1 6/4/1 10/4/1
f 14/4/1 6/4/1 13/4/1
f 17/4/1 16/4/1 15/4/1
f 18/4/1 16/4/1 17/4/1
f 19/4/2 20/4/2 21/4/2
f 21/4/2 20/4/2 22/4/2
f 23/4/2 24/4/2 29/4/2
f 24/3/2 25/3/2 29/3/2
f 25/1/2 26/1/2 30/1/2
f 29/3/2 25/3/2 30/3/2
f 26/3/2 27/3/2 31/3/2
f 30/1/2 26/1/2 31/1/2
f 27/4/2 28/4/2 32/4/2
f 31/3/2 27/3/2 32/3/2
f 23/4/2 29/4/2 33/4/2
f 33/4/2 29/4/2 34/4/2
f 32/4/2 28/4/2 35/4/2
f 35/4/2 28/4/2 36/4/2
f 39/4/3 38/4/3 37/4/3
f 40/4/3 38/4/3 39/4/3
f 41/4/3 38/4/3 40/4/3
f 42/3/3 40/3/3 39/3/3
f 43/3/3 40/3/3 42/3/3
f 44/1/3 43/1/3 42/1/3
f 45/1/3 43/1/3 44/1/3
f 46/3/3 45/3/3 44/3/3
f 47/3/3 45/3/3 46/3/3
f 49/4/3 47/4/3 46/4/3
f 49/4/3 48/4/3 47/4/3
f 50/4/3 48/4/3 49/4/3
f 53/4/3 52/4/3 51/4/3
f 54/4/3 52/4/3 53/4/3
f 55/4/4 56/4/4 57/4/4
f 57/4/4 56/4/4 58/4/4
f 59/4/4 60/4/4 61/4/4
f 61/4/4 60/4/4 62/4/4
f 63/4/4 64/4/4 65/4/4
f 65/4/4 64/4/4 66/4/4
f 73/1/5 70/1/5 69/1/5
f 74/1/5 70/1/5 73/1/5
f 75/4/5 68/4/5 67/4/5
f 76/3/5 69/3/5 68/3/5
f 76/4/5 68/4/5 75/4/5
f 77/1/5 73/1/5 69/1/5
f 77/3/5 69/3/5 76/3/5
f 78/1/5 70/1/5 74/1/5
f 78/3/5 71/3/5 70/3/5
f 79/4/5 72/4/5 71/4/5
f 79/3/5 71/3/5 78/3/5
f 80/4/5 72/4/5 79/4/5
f 81/3/5 76/3/5 75/3/5
f 82/1/5 77/1/5 76/1/5
f 82/3/5 76/3/5 81/3/5
f 83/1/5 79/1/5 78/1/5
f 83/3/5 80/3/5 79/3/5
f 84/3/5 80/3/5 83/3/5
f 85/1/5 73/1/5 77/1/5
f 85/2/5 74/2/5 73/2/5
f 85/1/5 77/1/5 82/1/5
f 85/1/5 82/1/5 81/1/5
f 86/1/5 78/1/5 74/1/5
f 86/2/5 74/2/5 85/2/5
f 86/1/5 84/1/5 83/1/5
f 86/1/5 83/1/5 78/1/5
f 87/1/5 85/1/5 81/1/5
f 87/1/5 86/1/5 85/1/5
f 88/1/5 84/1/5 86/1/5
f 88/1/5 86/1/5 87/1/5
f 89/1/5 87/1/5 81/1/5
f 89/2/5 88/2/5 87/2/5
f 90/1/5 84/1/5 88/1/5
f 90/2/5 88/2/5 89/2/5
f 91/1/5 89/1/5 81/1/5
f 91/1/5 90/1/5 89/1/5
f 92/1/5 90/1/5 91/1/5
f 93/1/5 90/1/5 92/1/5
f 94/1/5 90/1/5 93/1/5
f 95/1/5 84/1/5 90/1/5
f 95/1/5 90/1/5 94/1/5
f 96/1/5 84/1/5 95/1/5
f 97/1/5 84/1/5 96/1/5
f 98/1/5 84/1/5 97/1/5
f 99/1/5 91/1/5 81/1/5
f 99/2/5 92/2/5 91/2/5
f 100/1/5 93/1/5 92/1/5
f 100/2/5 92/2/5 99/2/5
f 101/2/5 94/2/5 93/2/5
f 101/1/5 93/1/5 100/1/5
f 102/1/5 95/1/5 94/1/5
f 102/2/5 94/2/5 101/2/5
f 103/2/5 96/2/5 95/2/5
f 103/1/5 95/1/5 102/1/5
f 104/1/5 97/1/5 96/1/5
f 104/2/5 96/2/5 103/2/5
f 105/2/5 98/2/5 97/2/5
f 105/1/5 97/1/5 104/1/5
f 106/1/5 84/1/5 98/1/5
f 106/2/5 98/2/5 105/2/5
f 107/1/5 100/1/5 99/1/5
f 107/1/5 105/1/5 104/1/5
f 107/1/5 106/1/5 105/1/5
f 107/1/5 103/1/5 102/1/5
f 107/1/5 102/1/5 101/1/5
f 107/1/5 101/1/5 100/1/5
f 107/1/5 99/1/5 81/1/5
f 107/1/5 104/1/5 103/1/5
f 108/1/5 84/1/5 106/1/5
f 108/1/5 106/1/5 107/1/5
f 109/3/5 108/3/5 107/3/5
f 110/3/5 108/3/5 109/3/5
f 111/4/5 110/4/5 109/4/5
f 112/4/5 110/4/5 111/4/5
f 114/1/6 115/1/6 117/1/6
f 117/1/6 115/1/6 118/1/6
f 113/3/6 114/3/6 120/3/6
f 114/1/6 117/1/6 121/1/6
f 120/3/6 114/3/6 121/3/6
f 118/1/6 115/1/6 122/1/6
f 115/3/6 116/3/6 122/3/6
f 122/3/6 116/3/6 123/3/6
f 119/3/6 120/3/6 125/3/6
f 120/1/6 121/1/6 126/1/6
f 125/3/6 120/3/6 126/3/6
f 123/3/6 124/3/6 127/3/6
f 122/1/6 123/1/6 127/1/6
f 127/3/6 124/3/6 128/3/6
f 121/1/6 117/1/6 129/1/6
f 126/1/6 121/1/6 129/1/6
f 117/2/6 118/2/6 129/2/6
f 125/1/6 126/1/6 129/1/6
f 127/1/6 128/1/6 130/1/6
f 129/2/6 118/2/6 130/2/6
f 122/1/6 127/1/6 130/1/6
f 118/1/6 122/1/6 130/1/6
f 125/1/6 129/1/6 131/1/6
f 129/1/6 130/1/6 131/1/6
f 130/1/6 128/1/6 132/1/6
f 131/1/6 130/1/6 132/1/6
f 125/1/6 131/1/6 133/1/6
f 131/2/6 132/2/6 133/2/6
f 132/1/6 128/1/6 134/1/6
f 133/2/6 132/2/6 134/2/6
f 125/1/6 133/1/6 135/1/6
f 133/1/6 134/1/6 135/1/6
f 135/1/6 134/1/6 136/1/6
f 136/1/6 134/1/6 137/1/6
f 137/1/6 134/1/6 138/1/6
f 134/1/6 128/1/6 139/1/6
f 138/1/6 134/1/6 139/1/6
f 139/1/6 128/1/6 140/1/6
f 140/1/6 128/1/6 141/1/6
f 141/1/6 128/1/6 142/1/6
f 125/1/6 135/1/6 143/1/6
f 135/2/6 136/2/6 143/2/6
f 136/1/6 137/1/6 144/1/6
f 143/2/6 136/2/6 144/2/6
f 137/2/6 138/2/6 145/2/6
f 144/1/6 137/1/6 145/1/6
f 138/1/6 139/1/6 146/1/6
f 145/2/6 138/2/6 146/2/6
f 139/2/6 140/2/6 147/2/6
f 146/1/6 139/1/6 147/1/6
f 140/1/6 141/1/6 148/1/6
f 147/2/6 140/2/6 148/2/6
f 141/2/6 142/2/6 149/2/6
f 148/1/6 141/1/6 149/1/6
f 142/1/6 128/1/6 150/1/6
f 149/2/6 142/2/6 150/2/6
f 143/1/6 144/1/6 151/1/6
f 148/1/6 149/1/6 151/1/6
f 149/1/6 150/1/6 151/1/6
f 146/1/6 147/1/6 151/1/6
f 145/1/6 146/1/6 151/1/6
f 144/1/6 145/1/6 151/1/6
f 125/1/6 143/1/6 151/1/6
f 147/1/6 148/1/6 151/1/6
f 150/1/6 128/1/6 152/1/6
f 151/1/6 150/1/6 152/1/6
f 151/3/6 152/3/6 153/3/6
f 153/3/6 152/3/6 154/3/6
f 155/4/6 156/4/6 159/4/6
f 159/4/6 156/4/6 160/4/6
f 157/4/6 158/4/6 161/4/6
f 161/4/6 158/4/6 162/4/6
f 163/4/6 164/4/6 165/4/6
f 165/4/6 164/4/6 166/4/6
